<svg width="214" height="53" viewBox="0 0 214 53" fill="none" xmlns="http://www.w3.org/2000/svg">
<g clip-path="url(#clip0_9_34)">
<g opacity="0.9">
<path d="M149.342 5.96421V23.1412H146.848V5.96421H141.386V3.54871H154.774V5.96421H149.342Z" fill="white"/>
<path d="M165.876 23.1711H163.263L156.406 3.57861H159.197L164.54 19.4732H164.659L170.21 3.57861H173L165.876 23.1711Z" fill="white"/>
<path d="M57.35 23.5885C51.2648 23.5885 46.1591 18.6084 46.1591 12.4951C46.1591 6.38173 51.2648 1.40161 57.35 1.40161C60.7044 1.40161 63.1088 2.71374 64.9195 4.44336L62.7823 6.59048C61.4761 5.36781 59.7545 4.41354 57.35 4.41354C52.8974 4.41354 49.4243 8.02189 49.4243 12.4652C49.4243 16.9384 52.8974 20.5169 57.35 20.5169C60.2294 20.5169 61.862 19.3539 62.9307 18.3102C63.7915 17.4453 64.3555 16.1929 64.5633 14.4931H57.35V11.4513H67.5021C67.6208 11.9881 67.6505 12.6442 67.6505 13.33C67.6505 15.5964 67.0271 18.3996 65.0383 20.4275C63.1088 22.5149 60.645 23.5885 57.35 23.5885Z" fill="white"/>
<path d="M83.3535 16.4612C83.3535 20.5765 80.2069 23.5885 76.348 23.5885C72.489 23.5885 69.3425 20.5467 69.3425 16.4612C69.3425 12.3161 72.489 9.33398 76.348 9.33398C80.2069 9.33398 83.3535 12.3161 83.3535 16.4612ZM80.296 16.4612C80.296 13.8966 78.4852 12.1372 76.348 12.1372C74.2404 12.1372 72.3999 13.8966 72.3999 16.4612C72.3999 18.996 74.2107 20.7853 76.348 20.7853C78.4555 20.7853 80.296 18.996 80.296 16.4612Z" fill="white"/>
<path d="M99.0564 16.4612C99.0564 20.5765 95.9099 23.5884 92.0509 23.5884C88.192 23.5884 85.0454 20.5467 85.0454 16.4612C85.0454 12.3161 88.192 9.33396 92.0509 9.33396C95.9099 9.30414 99.0564 12.3161 99.0564 16.4612ZM95.9989 16.4612C95.9989 13.8966 94.1882 12.1371 92.0509 12.1371C89.9433 12.1371 88.1029 13.8966 88.1029 16.4612C88.1029 18.996 89.9136 20.7853 92.0509 20.7853C94.1585 20.7853 95.9989 18.996 95.9989 16.4612Z" fill="white"/>
<path d="M114.374 9.75148V22.5745C114.374 27.8529 111.286 30 107.606 30C104.162 30 102.084 27.6739 101.312 25.7952L104.043 24.662C104.518 25.825 105.706 27.1968 107.635 27.1968C109.98 27.1968 111.435 25.7356 111.435 22.992V21.9781H111.316C110.604 22.8429 109.268 23.5885 107.576 23.5885C104.014 23.5885 100.778 20.4871 100.778 16.491C100.778 12.4652 104.043 9.33398 107.576 9.33398C109.268 9.33398 110.604 10.0795 111.316 10.9145H111.435V9.75148H114.374ZM111.613 16.491C111.613 13.9861 109.951 12.1372 107.813 12.1372C105.646 12.1372 103.865 13.9861 103.865 16.491C103.865 18.9662 105.676 20.7853 107.813 20.7853C109.951 20.7853 111.613 18.9662 111.613 16.491Z" fill="white"/>
<path d="M119.835 2.17688V23.1709H116.719V2.17688H119.835Z" fill="white"/>
<path d="M132.125 18.8171L134.559 20.4274C133.787 21.5904 131.887 23.5885 128.652 23.5885C124.615 23.5885 121.706 20.4572 121.706 16.4612C121.706 12.2266 124.644 9.33398 128.295 9.33398C131.976 9.33398 133.787 12.2863 134.381 13.8668L134.707 14.672L125.208 18.6083C125.921 20.0398 127.078 20.7853 128.652 20.7853C130.225 20.7853 131.294 20.0099 132.125 18.8171ZM124.644 16.2525L130.997 13.5984C130.64 12.7038 129.602 12.0775 128.355 12.0775C126.782 12.0775 124.585 13.4791 124.644 16.2525Z" fill="white"/>
<path d="M29.7139 0H9.52863C7.77726 0 6.35242 1.43141 6.35242 3.19085V6.38171H30.9607C32.7121 6.38171 34.1369 7.81312 34.1369 9.57256V4.44334C34.1369 1.96819 32.1481 0 29.7139 0Z" fill="#4285F4"/>
<path d="M4.42296 0C1.98885 0 0 1.99801 0 4.44334V15.4473C0 17.2068 1.42484 18.6382 3.17622 18.6382H6.35244V3.19085C6.35244 1.43141 7.77728 0 9.52865 0H4.42296Z" fill="#34A853"/>
<path d="M4.42296 25.02H24.6083C26.3596 25.02 27.7845 23.5885 27.7845 21.8291V18.6382H3.17622C1.42484 18.6382 0 17.2068 0 15.4474V20.6064C0 23.0219 1.95916 25.02 4.42296 25.02Z" fill="#FBBC04"/>
<path d="M29.7139 25.0199C32.148 25.0199 34.1369 23.0219 34.1369 20.5765V9.57257C34.1369 7.81312 32.712 6.38171 30.9607 6.38171H27.7844V21.829C27.7844 23.5885 26.3596 25.0199 24.6082 25.0199H29.7139Z" fill="#EA4335"/>
</g>
</g>
<g clip-path="url(#clip1_9_34)">
<path d="M148.133 40.6583C149.053 40.2027 149.776 39.5819 150.305 38.799C150.834 38.0162 151.098 37.1456 151.098 36.1872C151.098 35.229 150.832 34.3466 150.305 33.5856C149.776 32.8247 149.053 32.2207 148.133 31.7719C147.213 31.3231 146.19 31.0988 145.063 31.0988H137V47.0678H140.773V41.3416H143.651L147.329 47.0678L151.856 47.0898L147.729 40.8388C147.866 40.7831 148.002 40.7224 148.135 40.6566L148.133 40.6583ZM140.773 34.0648H144.389C144.961 34.0648 145.465 34.1593 145.898 34.3499C146.33 34.5406 146.661 34.8021 146.886 35.1379C147.111 35.4719 147.225 35.8684 147.225 36.3239C147.225 36.7491 147.129 37.1338 146.938 37.4763C146.748 37.8188 146.475 38.0854 146.119 38.2743C145.763 38.465 145.351 38.5594 144.884 38.5594H140.774V34.0648H140.773Z" fill="#E8E8E8"/>
<path d="M163.742 36.5873C163.479 36.2702 163.173 35.9833 162.819 35.7303C162.394 35.4266 161.899 35.187 161.336 35.0116C160.772 34.8361 160.153 34.7484 159.475 34.7484C158.279 34.7484 157.213 35.0183 156.276 35.5582C155.339 36.0981 154.599 36.8354 154.052 37.7717C153.506 38.7081 153.233 39.7829 153.233 40.9993C153.233 42.2158 153.502 43.2956 154.039 44.2387C154.576 45.1818 155.305 45.9276 156.224 46.4742C157.144 47.0225 158.175 47.2958 159.32 47.2958C159.96 47.2958 160.568 47.2081 161.141 47.0326C161.713 46.8572 162.23 46.6226 162.69 46.3257C163.077 46.076 163.41 45.7942 163.692 45.4855V47.0681H167.413V34.9997H163.744V36.5873H163.742ZM162.155 44.0581C161.636 44.3466 161.028 44.4917 160.333 44.4917C159.639 44.4917 159.064 44.3466 158.552 44.0581C158.04 43.7696 157.636 43.363 157.342 42.8383C157.048 42.3136 156.899 41.7012 156.899 41.001C156.899 40.3008 157.046 39.7154 157.342 39.1991C157.636 38.6828 158.04 38.2745 158.552 37.9793C159.064 37.6824 159.658 37.5338 160.333 37.5338C161.009 37.5338 161.634 37.6824 162.155 37.9793C162.675 38.2762 163.079 38.6828 163.365 39.1991C163.652 39.717 163.794 40.3177 163.794 41.001C163.794 41.6843 163.652 42.3136 163.365 42.8383C163.079 43.363 162.677 43.7696 162.155 44.0581Z" fill="#E8E8E8"/>
<path d="M180.676 36.2785C180.465 36.0861 180.23 35.9022 179.961 35.7318C179.483 35.4282 178.947 35.1886 178.348 35.0131C177.75 34.8377 177.131 34.7499 176.488 34.7499C175.274 34.7499 174.195 35.0232 173.25 35.5715C172.306 36.1199 171.559 36.8639 171.013 37.807C170.467 38.7502 170.193 39.8232 170.193 41.0245C170.193 42.2258 170.467 43.3393 171.013 44.2757C171.559 45.2103 172.31 45.9493 173.264 46.4892C174.218 47.0291 175.293 47.2991 176.49 47.2991C177.131 47.2991 177.742 47.2198 178.323 47.0595C178.904 46.8992 179.424 46.6799 179.884 46.3981C180.249 46.1737 180.555 45.9274 180.805 45.6591L180.884 47.0713H184.37V30.1861H180.676V36.2768V36.2785ZM180.364 42.8955C180.07 43.4287 179.662 43.8454 179.141 44.1508C178.622 44.4545 178.014 44.608 177.319 44.608C176.625 44.608 176.022 44.4562 175.511 44.1508C174.999 43.8471 174.601 43.4287 174.314 42.8955C174.028 42.3641 173.885 41.7398 173.885 41.0245C173.885 40.3091 174.028 39.7051 174.314 39.1652C174.601 38.6253 174.999 38.2069 175.511 37.91C176.022 37.613 176.625 37.4646 177.319 37.4646C178.014 37.4646 178.62 37.613 179.141 37.91C179.66 38.2069 180.068 38.6253 180.364 39.1652C180.659 39.7051 180.807 40.326 180.807 41.0245C180.807 41.723 180.659 42.3624 180.364 42.8955Z" fill="#E8E8E8"/>
<path d="M188.429 32.0572C188.827 32.3608 189.383 32.5144 190.093 32.5144C190.803 32.5144 191.338 32.3541 191.746 32.0352C192.154 31.7163 192.357 31.2895 192.357 30.758C192.357 30.2266 192.157 29.7812 191.759 29.469C191.359 29.1569 190.805 29 190.093 29C189.381 29 188.848 29.1637 188.441 29.491C188.033 29.8183 187.829 30.2401 187.829 30.7563C187.829 31.3199 188.029 31.7535 188.427 32.0572H188.429Z" fill="#E8E8E8"/>
<path d="M191.967 34.9996H188.273V47.0679H191.967V34.9996Z" fill="#E8E8E8"/>
<path d="M214 29H209.526L201.784 38.3689L199.068 34.9996H194.595L199.66 40.9384L189.695 53H194.116L201.871 43.6396L204.61 47.0696H209.031L204.01 41.0582L214 29Z" fill="#E8E8E8"/>
</g>
<path d="M56.233 44V33.8182H59.6733C60.4721 33.8182 61.125 33.9624 61.6321 34.2507C62.1425 34.5357 62.5204 34.9219 62.7656 35.4091C63.0109 35.8963 63.1335 36.4399 63.1335 37.0398C63.1335 37.6397 63.0109 38.1849 62.7656 38.6754C62.5237 39.166 62.1491 39.5571 61.642 39.8487C61.1349 40.1371 60.4853 40.2812 59.6932 40.2812H57.2273V39.1875H59.6534C60.2003 39.1875 60.6394 39.093 60.9709 38.9041C61.3023 38.7152 61.5426 38.46 61.6918 38.1385C61.8442 37.8137 61.9205 37.4474 61.9205 37.0398C61.9205 36.6321 61.8442 36.2675 61.6918 35.946C61.5426 35.6245 61.3007 35.3726 60.9659 35.1903C60.6312 35.0047 60.187 34.9119 59.6335 34.9119H57.4659V44H56.233ZM67.9808 44.1591C67.2914 44.1591 66.6866 43.995 66.1662 43.6669C65.6491 43.3388 65.2448 42.8797 64.9531 42.2898C64.6648 41.6998 64.5206 41.0104 64.5206 40.2216C64.5206 39.4261 64.6648 38.7318 64.9531 38.1385C65.2448 37.5452 65.6491 37.0845 66.1662 36.7564C66.6866 36.4283 67.2914 36.2642 67.9808 36.2642C68.6702 36.2642 69.2734 36.4283 69.7905 36.7564C70.3108 37.0845 70.7152 37.5452 71.0036 38.1385C71.2952 38.7318 71.4411 39.4261 71.4411 40.2216C71.4411 41.0104 71.2952 41.6998 71.0036 42.2898C70.7152 42.8797 70.3108 43.3388 69.7905 43.6669C69.2734 43.995 68.6702 44.1591 67.9808 44.1591ZM67.9808 43.1051C68.5045 43.1051 68.9354 42.9709 69.2734 42.7024C69.6115 42.4339 69.8617 42.081 70.0241 41.6435C70.1866 41.206 70.2678 40.732 70.2678 40.2216C70.2678 39.7112 70.1866 39.2356 70.0241 38.7947C69.8617 38.3539 69.6115 37.9976 69.2734 37.7259C68.9354 37.4541 68.5045 37.3182 67.9808 37.3182C67.4571 37.3182 67.0263 37.4541 66.6882 37.7259C66.3501 37.9976 66.0999 38.3539 65.9375 38.7947C65.7751 39.2356 65.6939 39.7112 65.6939 40.2216C65.6939 40.732 65.7751 41.206 65.9375 41.6435C66.0999 42.081 66.3501 42.4339 66.6882 42.7024C67.0263 42.9709 67.4571 43.1051 67.9808 43.1051ZM74.7024 44L72.3757 36.3636H73.6087L75.2592 42.2102H75.3388L76.9695 36.3636H78.2223L79.8331 42.1903H79.9126L81.5632 36.3636H82.7962L80.4695 44H79.3161L77.6456 38.1335H77.5263L75.8558 44H74.7024ZM87.2892 44.1591C86.5534 44.1591 85.9187 43.9967 85.3851 43.6719C84.8548 43.3438 84.4455 42.8864 84.1571 42.2997C83.8721 41.7098 83.7296 41.0237 83.7296 40.2415C83.7296 39.4593 83.8721 38.7699 84.1571 38.1733C84.4455 37.5734 84.8465 37.1061 85.3603 36.7713C85.8773 36.4332 86.4805 36.2642 87.1699 36.2642C87.5676 36.2642 87.9604 36.3305 88.3482 36.4631C88.736 36.5956 89.089 36.8111 89.4071 37.1094C89.7253 37.4044 89.9789 37.7955 90.1678 38.2827C90.3567 38.7699 90.4512 39.3698 90.4512 40.0824V40.5795H84.5648V39.5653H89.258C89.258 39.1345 89.1718 38.75 88.9995 38.4119C88.8304 38.0739 88.5885 37.8071 88.2736 37.6115C87.9621 37.416 87.5942 37.3182 87.1699 37.3182C86.7026 37.3182 86.2982 37.4342 85.9569 37.6662C85.6188 37.8949 85.3586 38.1932 85.1763 38.5611C84.994 38.929 84.9029 39.3234 84.9029 39.7443V40.4205C84.9029 40.9972 85.0023 41.486 85.2012 41.8871C85.4033 42.2848 85.6834 42.5881 86.0414 42.7969C86.3993 43.0024 86.8153 43.1051 87.2892 43.1051C87.5975 43.1051 87.8759 43.062 88.1245 42.9759C88.3764 42.8864 88.5935 42.7538 88.7757 42.5781C88.958 42.3991 89.0989 42.1771 89.1983 41.9119L90.3319 42.2301C90.2125 42.6146 90.012 42.9527 89.7303 43.2443C89.4486 43.5327 89.1006 43.758 88.6863 43.9205C88.272 44.0795 87.8063 44.1591 87.2892 44.1591ZM92.236 44V36.3636H93.3695V37.517H93.449C93.5882 37.1392 93.8401 36.8326 94.2047 36.5973C94.5693 36.362 94.9803 36.2443 95.4377 36.2443C95.5239 36.2443 95.6316 36.246 95.7608 36.2493C95.8901 36.2526 95.9879 36.2576 96.0542 36.2642V37.4574C96.0144 37.4474 95.9232 37.4325 95.7807 37.4126C95.6415 37.3894 95.494 37.3778 95.3382 37.3778C94.967 37.3778 94.6356 37.4557 94.3439 37.6115C94.0556 37.764 93.8269 37.9761 93.6578 38.2479C93.4921 38.5163 93.4093 38.8229 93.4093 39.1676V44H92.236ZM100.414 44.1591C99.6784 44.1591 99.0437 43.9967 98.5101 43.6719C97.9798 43.3438 97.5705 42.8864 97.2821 42.2997C96.9971 41.7098 96.8546 41.0237 96.8546 40.2415C96.8546 39.4593 96.9971 38.7699 97.2821 38.1733C97.5705 37.5734 97.9715 37.1061 98.4853 36.7713C99.0023 36.4332 99.6055 36.2642 100.295 36.2642C100.693 36.2642 101.085 36.3305 101.473 36.4631C101.861 36.5956 102.214 36.8111 102.532 37.1094C102.85 37.4044 103.104 37.7955 103.293 38.2827C103.482 38.7699 103.576 39.3698 103.576 40.0824V40.5795H97.6898V39.5653H102.383C102.383 39.1345 102.297 38.75 102.124 38.4119C101.955 38.0739 101.713 37.8071 101.399 37.6115C101.087 37.416 100.719 37.3182 100.295 37.3182C99.8276 37.3182 99.4232 37.4342 99.0819 37.6662C98.7438 37.8949 98.4836 38.1932 98.3013 38.5611C98.119 38.929 98.0279 39.3234 98.0279 39.7443V40.4205C98.0279 40.9972 98.1273 41.486 98.3262 41.8871C98.5283 42.2848 98.8084 42.5881 99.1664 42.7969C99.5243 43.0024 99.9403 43.1051 100.414 43.1051C100.722 43.1051 101.001 43.062 101.249 42.9759C101.501 42.8864 101.718 42.7538 101.901 42.5781C102.083 42.3991 102.224 42.1771 102.323 41.9119L103.457 42.2301C103.338 42.6146 103.137 42.9527 102.855 43.2443C102.574 43.5327 102.226 43.758 101.811 43.9205C101.397 44.0795 100.931 44.1591 100.414 44.1591ZM108.244 44.1591C107.608 44.1591 107.046 43.9983 106.559 43.6768C106.072 43.352 105.691 42.8946 105.416 42.3047C105.141 41.7114 105.003 41.0104 105.003 40.2017C105.003 39.3996 105.141 38.7036 105.416 38.1136C105.691 37.5237 106.074 37.0679 106.564 36.7464C107.055 36.425 107.621 36.2642 108.264 36.2642C108.762 36.2642 109.154 36.3471 109.443 36.5128C109.734 36.6752 109.956 36.8608 110.109 37.0696C110.265 37.2751 110.386 37.4441 110.472 37.5767H110.571V33.8182H111.744V44H110.611V42.8267H110.472C110.386 42.9659 110.263 43.1416 110.104 43.3537C109.945 43.5625 109.718 43.7498 109.423 43.9155C109.128 44.0779 108.735 44.1591 108.244 44.1591ZM108.404 43.1051C108.874 43.1051 109.272 42.9825 109.597 42.7372C109.922 42.4886 110.169 42.1456 110.338 41.7081C110.507 41.2673 110.591 40.7585 110.591 40.1818C110.591 39.6117 110.508 39.1129 110.343 38.6854C110.177 38.2545 109.932 37.9197 109.607 37.6811C109.282 37.4392 108.881 37.3182 108.404 37.3182C107.906 37.3182 107.492 37.4458 107.161 37.701C106.833 37.9529 106.586 38.2959 106.42 38.7301C106.258 39.161 106.176 39.6449 106.176 40.1818C106.176 40.7254 106.259 41.2192 106.425 41.6634C106.594 42.1042 106.843 42.4555 107.171 42.7173C107.502 42.9759 107.913 43.1051 108.404 43.1051ZM118.153 44V33.8182H119.326V37.5767H119.426C119.512 37.4441 119.631 37.2751 119.784 37.0696C119.939 36.8608 120.161 36.6752 120.45 36.5128C120.741 36.3471 121.136 36.2642 121.633 36.2642C122.276 36.2642 122.843 36.425 123.333 36.7464C123.824 37.0679 124.207 37.5237 124.482 38.1136C124.757 38.7036 124.894 39.3996 124.894 40.2017C124.894 41.0104 124.757 41.7114 124.482 42.3047C124.207 42.8946 123.825 43.352 123.338 43.6768C122.851 43.9983 122.289 44.1591 121.653 44.1591C121.162 44.1591 120.77 44.0779 120.475 43.9155C120.18 43.7498 119.953 43.5625 119.794 43.3537C119.634 43.1416 119.512 42.9659 119.426 42.8267H119.286V44H118.153ZM119.306 40.1818C119.306 40.7585 119.391 41.2673 119.56 41.7081C119.729 42.1456 119.976 42.4886 120.301 42.7372C120.625 42.9825 121.023 43.1051 121.494 43.1051C121.984 43.1051 122.394 42.9759 122.722 42.7173C123.053 42.4555 123.302 42.1042 123.468 41.6634C123.637 41.2192 123.721 40.7254 123.721 40.1818C123.721 39.6449 123.638 39.161 123.472 38.7301C123.31 38.2959 123.063 37.9529 122.732 37.701C122.404 37.4458 121.991 37.3182 121.494 37.3182C121.017 37.3182 120.615 37.4392 120.291 37.6811C119.966 37.9197 119.721 38.2545 119.555 38.6854C119.389 39.1129 119.306 39.6117 119.306 40.1818ZM127.171 46.8636C126.972 46.8636 126.795 46.8471 126.639 46.8139C126.484 46.7841 126.376 46.7543 126.316 46.7244L126.615 45.6903C126.9 45.7633 127.151 45.7898 127.37 45.7699C127.589 45.75 127.783 45.6522 127.952 45.4766C128.124 45.3042 128.282 45.0241 128.424 44.6364L128.643 44.0398L125.819 36.3636H127.092L129.2 42.4489H129.279L131.387 36.3636H132.66L129.419 45.1136C129.273 45.508 129.092 45.8345 128.877 46.093C128.661 46.3549 128.411 46.5488 128.126 46.6747C127.844 46.8007 127.526 46.8636 127.171 46.8636Z" fill="white"/>
<defs>
<clipPath id="clip0_9_34">
<rect width="173" height="30" fill="white"/>
</clipPath>
<clipPath id="clip1_9_34">
<rect width="77" height="24" fill="white" transform="translate(137 29)"/>
</clipPath>
</defs>
</svg>
