<svg width="300" height="300" viewBox="0 0 300 300" fill="none" xmlns="http://www.w3.org/2000/svg">
<circle cx="150" cy="150" r="150" fill="black"/>
<path d="M32.4128 174H25.2111L46.0407 117.273H53.1316L73.9611 174H66.7594L49.8077 126.247H49.3645L32.4128 174ZM35.0719 151.841H64.1003V157.935H35.0719V151.841ZM82.3677 174V131.455H88.9047V174H82.3677ZM85.6916 124.364C84.4174 124.364 83.3187 123.93 82.3954 123.062C81.4906 122.194 81.0382 121.151 81.0382 119.932C81.0382 118.713 81.4906 117.67 82.3954 116.802C83.3187 115.934 84.4174 115.5 85.6916 115.5C86.9657 115.5 88.0552 115.934 88.96 116.802C89.8833 117.67 90.345 118.713 90.345 119.932C90.345 121.151 89.8833 122.194 88.96 123.062C88.0552 123.93 86.9657 124.364 85.6916 124.364ZM100.877 174V131.455H107.193V137.881H107.636C108.412 135.776 109.815 134.067 111.846 132.756C113.877 131.445 116.167 130.79 118.716 130.79C119.196 130.79 119.796 130.799 120.516 130.817C121.236 130.836 121.781 130.864 122.15 130.901V137.548C121.929 137.493 121.421 137.41 120.627 137.299C119.851 137.17 119.029 137.105 118.162 137.105C116.093 137.105 114.247 137.539 112.622 138.407C111.015 139.256 109.741 140.438 108.799 141.952C107.876 143.448 107.414 145.156 107.414 147.077V174H100.877ZM130.785 174V117.273H149.953C154.403 117.273 158.041 118.076 160.866 119.683C163.71 121.271 165.815 123.422 167.182 126.136C168.548 128.851 169.231 131.879 169.231 135.222C169.231 138.564 168.548 141.602 167.182 144.335C165.834 147.067 163.747 149.246 160.922 150.871C158.096 152.478 154.477 153.281 150.064 153.281H136.325V147.188H149.842C152.889 147.188 155.336 146.661 157.182 145.609C159.029 144.556 160.368 143.134 161.199 141.343C162.048 139.533 162.473 137.493 162.473 135.222C162.473 132.95 162.048 130.919 161.199 129.128C160.368 127.337 159.02 125.933 157.155 124.918C155.29 123.884 152.815 123.366 149.731 123.366H137.655V174H130.785ZM185.948 117.273V174H179.411V117.273H185.948ZM210.44 174.997C207.744 174.997 205.298 174.489 203.1 173.474C200.903 172.44 199.158 170.953 197.865 169.014C196.572 167.057 195.926 164.693 195.926 161.923C195.926 159.486 196.406 157.51 197.366 155.996C198.327 154.463 199.61 153.263 201.217 152.395C202.823 151.527 204.596 150.881 206.535 150.456C208.492 150.013 210.459 149.662 212.435 149.403C215.02 149.071 217.116 148.822 218.722 148.656C220.347 148.471 221.529 148.166 222.268 147.741C223.025 147.317 223.403 146.578 223.403 145.526V145.304C223.403 142.571 222.656 140.447 221.16 138.933C219.683 137.419 217.439 136.662 214.429 136.662C211.308 136.662 208.862 137.345 207.089 138.712C205.316 140.078 204.07 141.537 203.349 143.088L197.145 140.872C198.253 138.287 199.73 136.274 201.577 134.834C203.442 133.375 205.473 132.359 207.67 131.787C209.886 131.196 212.065 130.901 214.207 130.901C215.574 130.901 217.143 131.067 218.916 131.399C220.707 131.713 222.434 132.369 224.096 133.366C225.776 134.363 227.17 135.868 228.278 137.881C229.386 139.893 229.94 142.589 229.94 145.969V174H223.403V168.239H223.071C222.628 169.162 221.889 170.15 220.855 171.202C219.821 172.255 218.445 173.151 216.728 173.889C215.011 174.628 212.915 174.997 210.44 174.997ZM211.438 169.125C214.023 169.125 216.202 168.617 217.974 167.602C219.766 166.586 221.114 165.275 222.018 163.668C222.942 162.062 223.403 160.372 223.403 158.599V152.616C223.126 152.949 222.517 153.254 221.575 153.531C220.652 153.789 219.581 154.02 218.362 154.223C217.162 154.408 215.989 154.574 214.844 154.722C213.718 154.851 212.804 154.962 212.102 155.054C210.403 155.276 208.815 155.636 207.338 156.134C205.879 156.614 204.697 157.344 203.793 158.322C202.906 159.283 202.463 160.594 202.463 162.256C202.463 164.527 203.303 166.244 204.984 167.408C206.683 168.553 208.834 169.125 211.438 169.125ZM244.558 189.955C243.45 189.955 242.463 189.862 241.595 189.678C240.727 189.511 240.127 189.345 239.794 189.179L241.456 183.418C243.044 183.824 244.448 183.972 245.666 183.861C246.885 183.75 247.965 183.205 248.907 182.227C249.867 181.266 250.744 179.706 251.539 177.545L252.757 174.222L237.024 131.455H244.115L255.86 165.358H256.303L268.047 131.455H275.138L257.078 180.205C256.266 182.402 255.259 184.221 254.059 185.661C252.859 187.12 251.465 188.2 249.877 188.902C248.307 189.604 246.534 189.955 244.558 189.955Z" fill="white"/>
</svg>
