<svg xmlns="http://www.w3.org/2000/svg" xmlns:xlink="http://www.w3.org/1999/xlink" width="200" zoomAndPan="magnify" viewBox="0 0 150 149.999998" height="200" preserveAspectRatio="xMidYMid meet" version="1.0"><defs><clipPath id="ef81ee0032"><path d="M 9.683594 19 L 140.183594 19 L 140.183594 150 L 9.683594 150 Z M 9.683594 19 " clip-rule="nonzero"/></clipPath></defs><path fill="#d4c19c" d="M 19.824219 40.117188 C 30.746094 26.683594 46.460938 17.300781 64.34375 14.609375 L 56.1875 4.445312 C 51.941406 0.0546875 42.769531 1.933594 31.234375 8.597656 C 19.695312 15.257812 13.484375 22.261719 15.160156 28.128906 Z M 19.824219 40.117188 " fill-opacity="1" fill-rule="nonzero"/><path fill="#d4c19c" d="M 74.964844 37.496094 C 72.515625 37.496094 70.527344 39.484375 70.527344 41.9375 L 70.527344 80.425781 L 32.039062 80.425781 C 29.585938 80.425781 27.597656 82.414062 27.597656 84.867188 C 27.597656 87.320312 29.585938 89.308594 32.039062 89.308594 L 74.964844 89.308594 C 77.417969 89.308594 79.40625 87.320312 79.40625 84.867188 L 79.40625 41.9375 C 79.40625 39.484375 77.417969 37.496094 74.964844 37.496094 Z M 74.964844 37.496094 " fill-opacity="1" fill-rule="nonzero"/><path fill="#d4c19c" d="M 130.109375 40.117188 C 119.1875 26.683594 103.476562 17.300781 85.59375 14.609375 L 93.75 4.445312 C 97.992188 0.0546875 107.164062 1.933594 118.703125 8.597656 C 130.238281 15.257812 136.449219 22.261719 134.773438 28.128906 Z M 130.109375 40.117188 " fill-opacity="1" fill-rule="nonzero"/><g clip-path="url(#ef81ee0032)"><path fill="#d4c19c" d="M 74.964844 19.730469 C 39.050781 19.730469 9.832031 48.953125 9.832031 84.867188 C 9.832031 120.78125 39.050781 150 74.964844 150 C 110.882812 150 140.101562 120.78125 140.101562 84.867188 C 140.101562 48.949219 110.882812 19.730469 74.964844 19.730469 Z M 74.964844 141.117188 C 43.949219 141.117188 18.714844 115.882812 18.714844 84.867188 C 18.714844 53.851562 43.949219 28.613281 74.964844 28.613281 C 105.984375 28.613281 131.21875 53.847656 131.21875 84.867188 C 131.21875 115.882812 105.984375 141.117188 74.964844 141.117188 Z M 74.964844 141.117188 " fill-opacity="1" fill-rule="nonzero"/></g></svg>