<svg width="300" height="300" viewBox="0 0 300 300" fill="none" xmlns="http://www.w3.org/2000/svg">
<circle cx="150" cy="150" r="150" fill="#F9F9F9"/>
<path fill-rule="evenodd" clip-rule="evenodd" d="M75 210V196.667C82.5312 196.667 88.6364 202.636 88.6364 210H75ZM115.909 210H102.273C102.273 195.272 90.0623 183.333 75 183.333V170C97.5935 170 115.909 187.909 115.909 210ZM143.182 210H129.545C129.545 180.545 105.125 156.667 75 156.667V143.333C112.656 143.333 143.182 173.181 143.182 210ZM88.6364 130H75V103.333C75 95.9695 81.1052 90 88.6364 90H211.364C218.895 90 225 95.9695 225 103.333V196.667C225 204.03 218.895 210 211.364 210H156.818V196.667H211.364V103.333H88.6364V130Z" fill="black"/>
</svg>
