<svg width="300" height="300" viewBox="0 0 300 300" fill="none" xmlns="http://www.w3.org/2000/svg">
<circle cx="150" cy="150" r="150" fill="#07154F"/>
<path d="M137.097 170.555C137.252 170.578 137.285 170.583 137.439 170.607C139.979 170.985 142.478 171.483 144.388 172.413C146.161 173.265 147.199 174.342 148.147 176.263C149.589 179.175 149.682 183.253 148.381 186.341C147.406 188.639 145.272 190.567 143.32 191.587C141.295 192.656 139.298 193.164 137.011 193.45C133.007 193.929 128.684 193.029 125.084 191.133C122.955 189.997 120.351 188.049 119.037 185.535C118.07 183.691 118.104 181.3 119.278 179.547C121.153 176.759 125.159 176.144 128.181 176.259C130.482 176.357 134.629 177.13 136.815 177.979C137.421 178.216 139.655 179.166 140.046 179.601C140.322 179.904 140.499 180.342 140.378 180.748C139.877 182.41 136.167 183.286 135.095 183.463C132.224 183.942 130.735 182.757 127.472 181.357C126.664 181.013 125.584 180.628 124.76 180.546C123.277 180.395 121.49 180.845 121.209 182.603C121.07 183.508 122.044 184.359 122.789 184.716C124.539 185.535 125.961 185.829 127.684 185.854C132.77 185.945 138.489 185.035 142.65 181.825C143.218 181.382 143.779 180.734 143.787 179.915C143.806 178.266 141.149 177.259 141.149 177.259C138.346 175.985 133.165 175.366 130.498 175.128C127.699 174.867 123.292 174.469 122.232 174.302C121.145 174.134 119.96 173.892 119.016 173.433C118.066 172.967 117.141 171.926 116.867 170.772C116.378 168.691 117.002 166.139 118.064 164.478C120.843 160.125 127.356 158.473 132.224 157.819C136.936 157.179 144.55 157.188 149.174 159.862C149.889 160.279 150.254 160.664 150.104 161.496C149.803 163.057 148.726 164.064 147.417 164.501C146.047 164.976 143.214 165.161 141.969 165.247C136.394 165.587 129.651 165.41 124.339 166.987C123.922 167.118 123.203 167.327 122.97 167.61C122.138 168.593 124.512 168.872 125.019 168.985C125.171 169.026 125.2 169.03 125.358 169.051L137.097 170.555ZM103.917 143.486C103.917 143.486 104.823 142.002 105.583 140.88C106.968 138.833 109.474 135.995 111.359 134.239C111.934 133.701 112.615 133.096 112.615 133.096C112.615 133.096 111.551 133.214 110.949 133.35C109.519 133.653 107.419 135.172 106.37 136.151C104.639 137.764 102.735 140.385 103.597 142.711C103.725 143.038 103.917 143.486 103.917 143.486ZM113.537 146.287C116.272 146.081 118.831 145.226 121.216 143.785C123.552 142.359 126.992 139.583 126.638 136.319C126.528 135.262 125.892 134.463 125.092 134.09C124.049 133.599 123.504 133.678 122.172 134.111C121.205 134.418 120.768 134.606 119.854 135.176C117.172 136.871 113.371 140.5 111.306 143.4C110.828 144.083 110.347 144.844 109.97 145.369C109.733 145.692 109.549 145.987 109.571 146.065C109.65 146.393 112.468 146.364 113.537 146.287ZM106.577 151.848C106.294 152.172 105.997 152.953 105.689 153.523C105.523 153.826 105.218 154.215 105.015 154.374C104.304 154.944 103.702 154.973 103.014 154.313C102.05 153.387 101.494 151.95 101.452 150.557C101.433 149.948 101.527 149.276 101.422 148.764C101.245 147.896 100.451 147.002 100.022 146.176C99.5184 145.201 99.112 143.498 99.0594 142.4C98.8863 138.977 100.545 135.819 102.701 133.33C104.872 130.811 107.709 128.721 110.798 127.298C113.718 125.958 117.995 125.044 121.201 126.257C122.242 126.646 123.699 127.612 124.429 128.624C124.583 128.832 124.711 129.062 124.869 129.173C125.013 129.271 125.385 129.312 125.682 129.368C126.705 129.562 128.177 130.405 128.778 130.966C129.985 132.101 130.648 133.185 130.954 134.758C131.567 137.925 129.892 141.396 127.985 143.509C124.718 147.147 121.49 149.706 117.314 151.487C115.478 152.269 112.619 152.998 110.538 152.794C109.891 152.736 109.229 152.548 108.597 152.503C108.277 152.473 107.1 152.143 106.975 152.048C106.814 151.917 106.61 151.806 106.577 151.848ZM110.309 158.867C110.437 158.892 110.632 158.953 110.802 159.023C112.265 159.629 112.871 161.102 113.232 162.724C114.068 166.487 114.425 174.818 114.564 178.078C114.666 180.522 114.722 182.929 114.817 185.35C114.896 187.398 115.046 190.121 114.655 192.038C114.512 192.73 114.086 193.529 113.481 193.943C112.784 194.425 111.201 194.461 110.331 194.269C108.187 193.787 107.491 192.283 107.182 189.977C106.456 184.47 106.806 173.655 107.235 169.092C107.378 167.585 107.901 162.756 108.623 160.729C108.868 160.05 109.391 158.674 110.309 158.867ZM45.0504 168.035C45.0504 168.035 41.8561 168.281 39.6589 168.548C36.8635 168.876 31.6112 169.863 28.5787 171.042C27.6682 171.397 25.8209 172.238 25.6629 173.257C25.4935 174.313 26.0955 175.137 26.7652 175.988C27.1528 176.485 29.3425 178.777 29.9557 179.334C32.5292 181.673 37.7476 185.28 41.5927 187.033C42.9133 187.628 45.0994 188.479 45.0994 188.479C45.0994 188.479 44.9375 181.709 44.9676 175.039C44.9826 171.517 45.0504 168.035 45.0504 168.035ZM103.589 170.73C103.774 172.548 103.341 175.988 103.27 176.443C103.134 177.487 102.408 179.899 102.288 180.194C101.704 181.66 101.125 182.861 100.515 184.06C99.4695 186.112 96.9787 189.363 95.5001 190.752C90.0033 195.92 81.4966 198.864 74.1976 199.835C69.2462 200.486 63.5538 200.391 58.3091 199.335C56.5031 198.979 53.8167 198.303 53.8167 198.303C53.8167 198.303 53.8242 199.475 53.7377 200.294C53.6964 200.67 53.4367 201.658 53.29 201.977C52.91 202.832 52.2817 203.278 51.3712 203.468C50.2726 203.688 49.1063 203.762 48.0904 203.291C46.4237 202.525 45.8255 200.83 45.532 198.868C45.2988 197.3 45.0504 194.576 45.0504 194.576C45.0504 194.576 43.8013 193.934 42.7628 193.368C39.5687 191.657 36.5324 189.576 33.8761 187.443C33.1388 186.845 29.9784 183.965 29.2823 183.25C27.3258 181.226 25.565 179.216 24.2294 176.635C23.1872 174.621 22.89 172.831 23.6801 170.693C24.7712 167.716 28.6915 165.476 31.378 164.198C33.3494 163.252 39.4746 161.073 42.018 160.672C43.2182 160.484 45.0843 160.125 45.1971 160.041C45.2423 160.001 45.2761 159.969 45.31 159.928C45.3703 159.837 45.468 156.889 45.4493 155.812C45.4229 154.751 46.1716 147.789 46.4086 146.319C46.5328 145.525 47.0858 142.457 47.6539 141.654C48.0227 141.11 48.6774 141.156 49.2116 141.511C52.1312 143.486 53.0154 150.337 53.2336 153.821C53.3652 155.946 53.4292 159.141 53.4292 159.141C53.4292 159.141 56.7778 159.034 58.8358 159.096C60.8374 159.145 63.0421 159.489 65.119 159.849C67.7789 160.312 72.9597 161.545 75.9358 163.184C78.3851 164.534 80.6764 166.811 81.4176 169.22C82.1061 171.426 82.0044 172.954 80.9549 174.949C79.7734 177.196 77.5386 178.872 75.2737 179.01C74.6002 179.051 72.0605 178.687 71.2817 178.028C70.9769 177.766 70.9921 177.291 71.214 176.972C71.2968 176.856 72.4819 176.173 73.1855 175.772C73.5354 175.562 73.8251 175.342 74.0997 175.067C74.6829 174.51 75.2059 173.897 75.1457 173.175C75.0667 172.241 74.1562 171.664 73.2909 171.295C69.2312 169.539 61.1271 168.085 57.2104 167.831C55.6792 167.733 53.497 167.65 53.497 167.65L53.9597 191.19C53.9597 191.19 55.7619 191.563 57.1841 191.812C58.0005 191.947 61.4544 192.283 62.3725 192.307C69.3629 192.508 77.1624 191.829 83.5772 188.533C86.3914 187.09 88.9762 185.293 90.9327 182.864C93.5098 179.65 94.8605 175.248 94.5032 170.648C94.1118 165.627 90.8649 159.665 88.2726 156.037C81.4213 146.446 69.679 138.559 59.3474 133.936C48.8015 129.217 38.376 126.502 27.1791 126.049C24.2934 125.933 18.0026 126.089 14.8197 127.047C14.3645 127.187 13.9093 127.354 13.484 127.456C13.1492 127.547 12.6262 127.784 12.4833 127.911C12.4043 127.981 12.3252 128.079 12.3252 128.079C12.3252 128.079 12.5209 128.198 12.709 128.284C13.0477 128.443 14.4622 128.538 15.1997 128.685C15.8581 128.82 16.539 129.196 16.81 129.717C17.0658 130.217 17.0997 130.606 16.7912 131.024C16.0688 131.977 13.3562 131.818 12.1634 131.61C10.9219 131.393 9.37553 130.979 9.09342 129.803C8.7623 128.42 9.36803 127.06 10.0226 125.802C11.3357 123.291 13.2132 121.985 15.9672 121.166C19.8763 119.995 24.8163 119.176 28.5073 119.024C36.8635 118.68 44.772 120.273 52.8724 122.947C57.5076 124.472 63.5727 127.031 68.016 129.361C71.2027 131.031 76.2255 134.111 79.0473 136.117C79.9351 136.757 85.1424 140.921 85.9512 141.654C87.6368 143.158 89.8453 145.316 91.4443 147.04C94.5371 150.373 98.3822 155.484 100.248 159.543C100.696 160.514 101.046 161.471 101.625 162.598C101.825 162.982 102.679 165.292 102.822 165.955C102.961 166.614 103.168 167.585 103.198 167.623C103.224 167.983 103.619 169.965 103.589 170.73ZM208.65 165.525C204.738 166.508 194.447 167.053 194.447 167.053L193.149 171.476C193.149 171.476 198.292 170.996 202.032 171.422C202.032 171.422 203.243 171.27 203.387 172.922C203.435 174.461 203.266 176.116 203.266 176.116C203.266 176.116 203.187 177.114 201.886 177.368C200.475 177.623 190.801 178.033 190.801 178.033L189.236 183.798C189.236 183.798 188.653 185.133 189.959 184.752C191.17 184.4 201.306 182.327 202.626 182.626C204.041 183.008 205.607 185.063 205.154 186.936C204.617 189.253 194.496 196.276 188.337 195.789C188.337 195.789 185.097 196.018 182.362 191.26C179.815 186.726 183.33 178.146 183.33 178.146C183.33 178.146 181.719 174.141 182.885 172.782C182.885 172.782 183.581 172.094 185.606 171.942L188.084 166.356C188.084 166.356 185.259 166.569 183.581 164.306C182.016 162.159 181.885 161.172 183.085 160.582C184.367 159.894 196.132 157.557 204.225 157.851C204.225 157.851 207.039 157.552 209.477 162.86C209.477 162.86 210.658 165.01 208.65 165.525ZM178.204 186.997C177.167 189.654 174.427 192.488 171.022 190.723C167.663 188.958 162.308 177.033 162.308 177.033C162.308 177.033 160.277 172.585 159.886 172.7C159.886 172.7 159.446 171.831 159.178 176.689C158.9 181.526 159.232 190.961 157.459 192.447C155.781 193.938 153.746 193.344 152.692 191.603C151.732 189.891 151.333 185.816 151.857 178.666C152.47 171.501 154.002 163.876 155.954 161.505C157.906 159.145 159.471 160.858 160.082 161.48C160.082 161.48 162.693 164.055 166.996 171.614L167.757 173.015C167.757 173.015 171.669 180.157 172.076 180.141C172.076 180.141 172.396 180.469 172.681 180.235C173.092 180.108 172.926 177.815 172.926 177.815C172.926 177.815 172.113 170.03 168.547 156.851C168.547 156.851 168.008 155.21 168.374 153.67C168.735 152.113 170.168 152.842 170.168 152.842C170.168 152.842 175.699 155.869 178.385 165.668C181.053 175.476 179.258 184.318 178.204 186.997ZM237.729 181.124C235.213 185.907 228.105 195.916 218.659 193.553C215.539 201.785 212.92 210.113 211.419 222.575C211.419 222.575 211.088 224.996 209.241 224.156C207.409 223.46 204.391 220.143 203.778 215.552C203.119 209.525 205.588 199.339 210.621 187.655C209.151 185.056 208.149 181.341 209.008 176.053C209.008 176.053 210.271 166.234 219.335 157.38C219.335 157.38 220.422 156.36 221.051 156.672C221.743 156.987 221.423 160.186 220.874 161.738C220.303 163.281 216.269 170.886 216.269 170.886C216.269 170.886 213.751 176.021 214.46 180.071C219.211 172.119 230.017 156.077 236.714 161.136C238.963 162.888 240.002 166.697 240.002 170.804C240.005 174.42 239.208 178.253 237.729 181.124ZM235.777 168.528C235.777 168.528 235.404 165.365 232.563 168.851C230.122 171.791 225.712 177.299 222.168 184.782C225.889 184.327 229.478 182.128 230.566 181.01C232.326 179.302 236.439 174.678 235.777 168.528ZM289.763 167.811H272.452C272.106 161.406 271.395 155.168 270.282 148.744C270.168 148.079 269.634 147.597 269.017 147.597H265.025C264.679 147.597 264.348 147.765 264.123 148.063C263.897 148.367 263.81 148.747 263.874 149.124C265.007 155.34 265.726 161.459 266.079 167.819H249.423C248.648 167.819 248.016 168.503 248.016 169.342V173.261C248.016 174.105 248.648 174.793 249.423 174.793H266.316C266.327 175.759 266.335 176.628 266.335 177.438C266.335 183.085 266.113 187.737 265.589 192.984C265.549 193.389 265.67 193.794 265.925 194.09C266.169 194.388 266.522 194.56 266.888 194.56H270.59C271.312 194.56 271.91 193.97 271.983 193.185C272.486 187.902 272.704 183.192 272.704 177.434C272.704 176.623 272.698 175.755 272.685 174.788H289.759C290.535 174.788 291.167 174.101 291.167 173.257V169.338C291.171 168.494 290.539 167.811 289.763 167.811Z" fill="white"/>
<path d="M58.5915 115.25C58.3466 115.647 58.2863 116.135 58.4257 116.591C58.5726 117.046 58.8928 117.393 59.3071 117.554L62.4142 118.693C62.6025 118.759 62.787 118.793 62.9716 118.793C63.5478 118.793 64.0863 118.48 64.4065 117.959C74.583 101.685 88.3525 88.1387 104.235 78.7777C120.629 69.1135 139.204 64.0004 157.956 64.0004C180.608 64.0004 202.463 71.2742 221.159 85.0347C239.403 98.4548 253.571 117.18 262.132 139.19C262.388 139.851 262.979 140.273 263.634 140.273H267.344C267.769 140.273 268.173 140.04 268.414 139.65C268.655 139.26 268.703 138.769 268.541 138.334C259.714 114.672 244.784 94.5022 225.362 80.0118C205.48 65.1773 182.17 57.3334 157.956 57.3334C117.925 57.3252 80.7748 78.9786 58.5915 115.25Z" fill="white"/>
</svg>
