<svg width="273" height="106" viewBox="0 0 273 106" fill="none" xmlns="http://www.w3.org/2000/svg">
<path fill-rule="evenodd" clip-rule="evenodd" d="M146.068 39.4275C144.526 44.6685 129.213 41.2286 124.409 32.6289C130.715 33.3369 137.821 27.6918 137.941 21.2575L146.068 39.4275ZM152.333 38.749C153.033 38.4348 154.447 37.7268 154.796 36.2089L138.322 0.0885939C137.221 -0.0530138 136.419 -0.154794 135.018 0.857111L152.333 38.749ZM159.74 30.9075C166.748 20.1821 160.843 2.57705 145.749 0.109245L159.74 30.9075ZM158.195 54.0013C160.401 52.128 164.288 52.0837 166.801 53.2874C167.862 53.8228 168.876 54.5382 169.537 55.4734L164.684 63.1055C164.065 62.6128 163.623 62.3916 162.829 61.9903C160.424 60.9416 157.887 61.5552 156.427 62.8813V85.1491C156.397 88.9976 157.058 92.5098 159.032 94.3389H147.998C145.704 92.5555 145.13 89.6997 144.908 87.1995L144.819 57.5946C144.919 55.1976 144.312 54.137 143.363 52.7976L154.795 52.8434C155.724 53.5116 155.766 54.6725 156.254 55.5664L158.195 54.0013ZM172.143 61.3192C172.054 58.5077 172.673 55.1401 170.852 52.7077H181.457C182.163 53.2431 182.56 54.137 182.782 54.9837C183.356 55.7419 183.312 56.8128 183.575 57.7067L183.664 89.2543C184.106 91.1276 184.812 93.0231 186.181 94.4952L174.838 94.5188C171.13 90.8945 172.344 84.9249 172.057 78.7679L172.143 61.3192ZM188.918 61.6319C190.064 58.4162 193.64 56.8113 196.245 55.0722C200.215 53.6001 204.587 49.9404 209.044 52.9319C212.751 55.3835 216.017 58.1522 218.358 61.9431C218.931 63.4153 219.195 65.0659 219.595 66.628C219.595 68.7256 220.034 70.2862 219.991 72.3838C220.122 74.6598 220.122 76.7146 219.991 78.9435C219.856 82.7344 218.092 86.1256 215.134 88.7586C210.72 92.731 205.159 97.2374 199.157 94.1574C193.771 91.6129 187.415 86.5711 187.812 79.6574C187.593 74.7483 187.373 70.5104 188.034 65.7341C188.299 64.352 188.165 62.837 188.918 61.6319ZM199.95 83.9425C200.479 85.9044 201.495 88.3132 203.834 88.5816C205.203 88.6273 206.22 87.4665 207.012 86.4841C209.486 81.5779 209.133 76.2219 209.133 70.6446C208.337 66.4967 209.309 60.8295 204.895 58.2849C203.35 57.7052 202.159 58.7776 201.187 59.7571C199.465 62.3901 199.267 65.4007 199.157 68.7492C198.583 74.1052 199.201 78.5437 199.95 83.9425ZM227.848 94.4274C224.425 92.6204 223.898 87.5122 223.976 75.0964L224.053 56.0649L217.564 56.0561L219.02 52.5292H224.053V43.5164L236.103 39.0101L236.097 52.2283L241.62 52.2386L240.164 56.1431L236.103 56.1372L236.08 89.0728C236.345 91.7265 237.228 93.2871 238.485 94.4259L227.848 94.4274ZM117.674 57.5931C117.602 55.1902 117.166 54.1355 116.217 52.7962L127.649 52.8419C128.577 53.5101 128.621 54.671 129.107 55.5649L131.049 53.9998C133.255 52.1265 137.14 52.0822 139.655 53.2859C140.716 53.8213 141.73 54.5368 142.391 55.472L137.538 63.104C136.919 62.6113 136.477 62.3901 135.683 61.9889C133.278 60.9401 130.739 61.5537 129.282 62.8798V85.1476C129.25 88.9961 129.912 92.5083 131.888 94.3374H120.853C118.558 92.554 117.904 89.8944 117.763 87.198L117.674 57.5931ZM31.2023 69.3082L27.0246 77.9448C24.1879 83.0412 20.2086 89.2956 14.1033 90.8488C11.7394 91.6837 9.65268 90.927 7.3661 90.7677L0 102.955C0.551582 103.551 1.32934 104.055 2.08813 104.349C15.0503 109.345 20.2684 103.968 33.0336 74.8176L45.0882 100.785H61.1424L53.5589 83.2595L57.8519 74.2011L69.7094 100.384L85.0734 100.484L58.1875 40.7492L45.8017 46.9711L55.5069 69.264L51.2519 78.0245L33.4655 39.2063L20.4158 45.9267L31.2023 69.3082ZM80.5513 79.8373C80.8607 75.5065 83.1998 71.4471 87.1732 69.261C91.1014 66.8065 95.6921 65.8241 99.7531 63.6837C100.459 63.104 101.342 62.3901 101.386 61.4534C101.43 60.2925 100.856 59.3986 99.8407 58.9989C93.6609 57.6595 88.5405 61.5862 84.0389 65.4701C84.6123 62.6114 85.053 59.4886 86.378 56.8128C87.0405 56.0989 87.4374 55.1165 88.3202 54.5825C92.6905 52.3949 98.164 51.771 103.064 52.1265C107.081 52.3935 110.789 55.2935 112.156 58.9989C112.863 60.7395 112.819 62.7013 112.95 64.4877L112.995 88.6716C113.039 90.7691 114.01 92.734 115.246 94.4274H103.813C102.444 93.1765 101.771 91.6159 101.386 89.654C98.1859 92.5098 91.5086 96.7506 87.5264 93.9376C83.3983 92.0613 79.6247 85.7701 80.5513 79.8373ZM100.811 71.425C100.723 69.7507 99.5313 69.5752 98.6923 69.5752C95.9562 69.9749 93.5996 72.2923 92.2922 74.6598C91.1219 76.781 90.8461 78.5629 90.7469 80.4156C90.7366 82.4128 90.6141 83.8953 91.4093 85.4146C91.85 86.3941 92.8219 86.841 93.7499 87.108C95.5141 87.465 97.1499 86.9753 98.5172 86.0386C101.739 84.2065 101.164 80.5469 101.209 77.2914L100.811 71.425ZM271.505 88.8058C272.079 89.3988 272.366 90.0965 272.366 90.9034C272.366 91.7324 272.079 92.4449 271.499 93.0378C270.923 93.6279 270.228 93.9229 269.413 93.9229C268.597 93.9229 267.899 93.6293 267.323 93.0437C267.041 92.7662 266.817 92.4331 266.667 92.0649C266.517 91.6968 266.443 91.3015 266.45 90.9034C266.45 90.0936 266.735 89.3973 267.308 88.8058C267.886 88.201 268.588 87.9016 269.411 87.9016C270.228 87.9016 270.924 88.201 271.505 88.8058ZM271.947 88.3427C271.619 88.0005 271.225 87.7299 270.789 87.5475C270.354 87.3651 269.886 87.2748 269.414 87.2821C268.471 87.2821 267.65 87.611 266.949 88.2645C266.205 88.9681 265.832 89.8458 265.832 90.9034C265.832 91.9227 266.176 92.7812 266.866 93.4789C267.559 94.1795 268.409 94.5277 269.414 94.5277C270.392 94.5277 271.226 94.1854 271.925 93.5054C272.273 93.1709 272.548 92.7667 272.733 92.3187C272.918 91.8707 273.009 91.3887 272.999 90.9034C272.999 89.9033 272.649 89.0507 271.947 88.3427ZM269.859 90.6305C269.688 90.7375 269.489 90.789 269.289 90.778H268.884V89.6142H269.138C269.398 89.6142 269.596 89.6407 269.742 89.6983C269.955 89.7823 270.062 89.9343 270.062 90.1541C270.06 90.3738 269.992 90.5317 269.859 90.6305ZM268.884 91.5008H269.103L269.331 91.5155C269.452 91.5176 269.572 91.539 269.687 91.579C269.754 91.603 269.815 91.6418 269.865 91.6926C269.915 91.7433 269.954 91.8048 269.977 91.8725C270.011 91.9596 270.031 92.1233 270.04 92.3652C270.052 92.6071 270.071 92.7915 270.106 92.9213H271.098L271.064 92.8092C271.038 92.7335 271.026 92.6534 271.029 92.5732V92.2133C271.029 91.8047 270.913 91.5052 270.679 91.3149C270.511 91.1957 270.318 91.117 270.115 91.0848C270.365 91.0641 270.604 90.9698 270.802 90.8134C270.99 90.663 271.08 90.4181 271.08 90.0818C271.08 89.6378 270.907 89.3177 270.554 89.123C270.31 88.9983 270.043 88.9274 269.77 88.915C269.497 88.9094 269.223 88.9074 268.95 88.9091C268.46 88.9061 268.092 88.9061 267.844 88.9061V92.9228H268.884V91.5008Z" fill="#B01842"/>
</svg>
