<svg width="300" height="300" viewBox="0 0 300 300" fill="none" xmlns="http://www.w3.org/2000/svg">
<path d="M150 4.6875C67.1976 4.6875 0 69.7852 0 150C0 230.215 67.1976 295.312 150 295.312C232.802 295.312 300 230.215 300 150C300 69.7852 232.802 4.6875 150 4.6875Z" fill="#1ED760"/>
<path d="M245.927 135.41C242.782 135.41 240.847 134.648 238.125 133.125C195.061 108.223 118.065 102.246 68.2259 115.723C66.0484 116.309 63.3267 117.246 60.4234 117.246C52.4396 117.246 46.3307 111.211 46.3307 103.418C46.3307 95.4492 51.4113 90.9375 56.8549 89.4141C78.1452 83.3789 101.976 80.5078 127.923 80.5078C172.077 80.5078 218.347 89.4141 252.157 108.516C256.875 111.152 259.96 114.785 259.96 121.758C259.96 129.727 253.307 135.41 245.927 135.41ZM227.177 180.059C224.032 180.059 221.915 178.711 219.738 177.598C181.936 155.918 125.565 147.188 75.4234 160.371C72.5202 161.133 70.9476 161.895 68.2259 161.895C61.7541 161.895 56.492 156.797 56.492 150.527C56.492 144.258 59.6371 140.098 65.867 138.398C82.6815 133.828 99.8589 130.43 125.02 130.43C164.274 130.43 202.198 139.863 232.077 157.09C236.976 159.902 238.911 163.535 238.911 168.633C238.851 174.961 233.77 180.059 227.177 180.059ZM210.907 218.496C208.367 218.496 206.794 217.734 204.436 216.387C166.694 194.355 122.782 193.418 79.4154 202.031C77.0565 202.617 73.9718 203.555 72.2178 203.555C66.3509 203.555 62.6613 199.043 62.6613 194.297C62.6613 188.262 66.3508 185.391 70.8871 184.453C120.423 173.848 171.048 174.785 214.234 199.805C217.923 202.09 220.101 204.141 220.101 209.473C220.101 214.805 215.807 218.496 210.907 218.496Z" fill="black"/>
</svg>
