<svg width="300" height="300" viewBox="0 0 300 300" fill="none" xmlns="http://www.w3.org/2000/svg">
<circle cx="150" cy="150" r="150" fill="#F9F9F9"/>
<path d="M169.779 111.062C168.056 108.057 165.473 105.604 162.293 103.887L191.111 66.293L184.685 62L154.475 101.373C153.68 101.311 152.885 101.25 152.024 101.25C151.163 101.25 150.301 101.311 149.44 101.434L127.18 69.9113L120.555 73.959L141.689 103.887C138.575 105.604 135.991 108.119 134.269 111.062H71V209.188H86.8338V219H214.034V209.188H230V111.062H169.779ZM192.834 194.469H86.8338V125.781H192.834V194.469ZM211.384 194.469C207.74 194.469 204.759 191.709 204.759 188.336C204.759 184.963 207.74 182.203 211.384 182.203C215.028 182.203 218.009 184.963 218.009 188.336C218.009 191.709 215.028 194.469 211.384 194.469ZM211.384 171.041C207.74 171.041 204.759 168.282 204.759 164.909C204.759 161.536 207.74 158.776 211.384 158.776C215.028 158.776 218.009 161.536 218.009 164.909C218.009 168.282 215.028 171.041 211.384 171.041Z" fill="black"/>
</svg>
