<svg width="300" height="300" viewBox="0 0 300 300" fill="none" xmlns="http://www.w3.org/2000/svg">
<circle cx="150" cy="150" r="150" fill="#F9F9F9"/>
<g clip-path="url(#clip0_51_844)">
<g clip-path="url(#clip1_51_844)">
<path d="M272.648 94.9859C269.698 85.1458 261.036 77.413 250.015 74.7789C230.059 70 150 70 150 70C150 70 69.9422 70 49.9855 74.7789C38.9642 77.413 30.303 85.1458 27.3527 94.9859C22 112.803 22 150 22 150C22 150 22 187.197 27.3527 205.014C30.303 214.854 38.9642 222.587 49.9855 225.221C69.9422 230 150 230 150 230C150 230 230.059 230 250.015 225.221C261.036 222.587 269.698 214.854 272.648 205.014C278.001 187.197 278.001 150 278.001 150C278.001 150 277.979 112.803 272.648 94.9859Z" fill="#FF0000"/>
<path d="M124.376 184.283L190.884 150.003L124.376 115.723V184.283Z" fill="white"/>
</g>
</g>
<defs>
<clipPath id="clip0_51_844">
<rect width="256" height="160" fill="white" transform="translate(22 70)"/>
</clipPath>
<clipPath id="clip1_51_844">
<rect width="256" height="160" fill="white" transform="translate(22 70)"/>
</clipPath>
</defs>
</svg>
